<?xml version="1.0" encoding="UTF-8" standalone="no"?>
<!-- Created with Inkscape (http://www.inkscape.org/) -->

<svg
   xmlns:dc="http://purl.org/dc/elements/1.1/"
   xmlns:cc="http://creativecommons.org/ns#"
   xmlns:rdf="http://www.w3.org/1999/02/22-rdf-syntax-ns#"
   xmlns:svg="http://www.w3.org/2000/svg"
   xmlns="http://www.w3.org/2000/svg"
   xmlns:sodipodi="http://sodipodi.sourceforge.net/DTD/sodipodi-0.dtd"
   xmlns:inkscape="http://www.inkscape.org/namespaces/inkscape"
   width="617.63678"
   height="613.92725"
   id="svg2"
   version="1.1"
   inkscape:version="0.48.0 r9654"
   sodipodi:docname="direccionesposiblesr403a.svg">
  <defs
     id="defs4" />
  <sodipodi:namedview
     id="base"
     pagecolor="#ffffff"
     bordercolor="#666666"
     borderopacity="1.0"
     inkscape:pageopacity="0.0"
     inkscape:pageshadow="2"
     inkscape:zoom="0.75402795"
     inkscape:cx="528.86105"
     inkscape:cy="310.75262"
     inkscape:document-units="px"
     inkscape:current-layer="layer1"
     showgrid="false"
     fit-margin-top="0"
     fit-margin-left="0"
     fit-margin-right="0"
     fit-margin-bottom="0"
     inkscape:window-width="1280"
     inkscape:window-height="750"
     inkscape:window-x="-8"
     inkscape:window-y="-8"
     inkscape:window-maximized="1" />
  <metadata
     id="metadata7">
    <rdf:RDF>
      <cc:Work
         rdf:about="">
        <dc:format>image/svg+xml</dc:format>
        <dc:type
           rdf:resource="http://purl.org/dc/dcmitype/StillImage" />
        <dc:title></dc:title>
      </cc:Work>
    </rdf:RDF>
  </metadata>
  <g
     inkscape:label="Capa 1"
     inkscape:groupmode="layer"
     id="layer1"
     transform="translate(-6.6938286,-251.62091)">
    <path
       sodipodi:type="arc"
       style="fill:#ffffff;fill-opacity:1;fill-rule:nonzero;stroke:#0000ff;stroke-width:1;stroke-linecap:round;stroke-linejoin:round;stroke-miterlimit:4;stroke-opacity:1;stroke-dasharray:none;stroke-dashoffset:0"
       id="path3014"
       sodipodi:cx="455.55341"
       sodipodi:cy="338.73849"
       sodipodi:rx="295.08191"
       sodipodi:ry="295.08191"
       d="m 750.63531,338.73849 a 295.08191,295.08191 0 1 1 -590.16381,0 295.08191,295.08191 0 1 1 590.16381,0 z"
       transform="matrix(1.0201905,0,0,1.0201905,-146.3979,210.96323)" />
    <path
       inkscape:connector-curvature="0"
       id="path3008"
       d="m 7.8425688,860.91284 c 0.67538,-0.67537 2.4284002,-0.74757 3.8956002,-0.16044 1.62138,0.64881 1.13977,1.13043 -1.22796,1.22795 -2.1425802,0.0882 -3.3430202,-0.39213 -2.6676402,-1.06751 z M 289.80763,860.79898 c -34.91125,-5.41572 -47.26834,-8.17677 -67.99014,-15.19159 -50.47526,-17.08709 -87.7962,-41.0607 -125.260821,-80.463 -40.90854,-43.02435 -69.70335,-101.04633 -78.39348,-157.96412 -3.87511,-25.38079 -3.73195,-48.24678 -4.26834,-35.26914 -0.20792,5.0304 1.18721,8.11764 0.33386,11.47124 -0.85334,3.35361 0.71311,7.43235 0.71458,-22.75006 0.002,-49.89332 -1.28646,-43.64253 0.91433,-29.36332 1.33134,8.63804 -2.7987,-0.0765 -2.2618,0.46039 0.5369,0.5369 2.13402,-6.89659 3.54914,-17.44103 13.16548,-98.09882 78.72953,-187.83618 169.891971,-231.33016 55.44037,-26.45083 113.95228,-35.80142 171.61441,-27.42509 70.0054,10.16941 124.3854,37.39863 174.1315,87.19144 37.0692,37.10402 63.447,86.1186 80.0045,136.28883 6.4428,19.52206 8.1326,44.70516 8.5764,78.86879 0.4486,34.52752 -4.7471,-0.27012 -6.4542,-22.56368 -8.1583,-106.5364 -68.1253,-195.94326 -163.5193,-243.79624 -49.1195,-24.64006 -97.7593,-34.4051 -153.32388,-30.78165 -41.95413,2.7359 -74.34705,11.46558 -111.96504,30.17384 -62.36936,31.01767 -105.387501,74.91087 -136.246391,139.01782 -20.27769,42.12536 -28.7461,79.52537 -28.60225,126.31945 0.13339,43.39154 5.57982,73.54202 19.7738,109.46422 37.29402,94.38392 118.707631,163.02952 217.277621,183.20221 65.87372,13.48129 142.39404,2.42705 200.19984,-28.92116 11.6029,-6.29225 39.8821,-24.1566 42.6822,-26.96291 0.5589,-0.56018 7.775,-6.94129 16.0356,-14.18025 54.0198,-47.3386 90.8624,-120.96058 97.6654,-195.16355 l 1.5839,-17.27613 1.6901,-4.48333 c 10.1754,-26.99299 -3.5523,72.38789 -15.6419,103.99802 -15.8148,41.35029 -36.1314,72.18357 -69.7636,105.87629 -47.6174,47.70297 -100.1186,74.6855 -167.4926,86.08132 -23.0991,3.90703 -59.89028,5.32717 -75.45541,2.91255 z M 285.74266,837.5723 C 254.04111,833.50327 222.01074,824.14863 195.75711,811.29155 110.82469,769.69793 52.044409,688.20375 38.875679,593.78793 c -3.91504,-28.06964 -3.93133,-42.38448 -0.0817,-71.75148 13.37871,-102.05852 79.042501,-187.50749 173.441791,-225.7016 52.11292,-21.08498 107.00263,-26.35509 160.90367,-15.44881 25.787,5.21768 41.6669,10.53892 66.2452,22.1981 80.1443,38.0182 136.5896,110.54294 155.611,199.93999 6.3034,29.62466 6.3232,79.26014 0.043,108.48763 -23.3081,108.47874 -99.1544,188.9792 -206.4234,219.0902 -27.9181,7.83677 -72.5578,10.86142 -102.87288,6.97034 z m 99.09608,-226.9516 c 0.2863,-87.47311 1.0042,-159.04201 1.5955,-159.04201 0.5912,0 10.495,5.0304 22.0084,11.17867 11.5134,6.14827 22.8931,11.17867 25.2881,11.17867 2.3951,0 5.8127,-2.22521 7.5947,-4.94492 4.4765,-6.8321 10.3796,2.59396 -64.6826,-103.28495 -7.7269,-10.8992 -15.106,-19.75497 -16.398,-19.67949 -2.0081,0.11734 -47.87877,63.04172 -76.28422,104.64503 -8.66038,12.68422 -8.80701,13.1643 -5.54247,18.14661 1.84428,2.81475 4.58976,5.11772 6.10108,5.11772 1.51129,0 13.4616,-5.0341 26.55621,-11.1869 13.09462,-6.15281 24.6417,-10.67193 25.6601,-10.04249 2.0258,1.25203 2.6445,124.88616 0.625,124.88616 -0.6747,0 -6.782,-4.64181 -13.57168,-10.31515 -13.64208,-11.39905 -27.25352,-18.81441 -50.24111,-27.37081 -14.2146,-5.29095 -17.81626,-5.7345 -53.35275,-6.5705 -20.96001,-0.4931 -38.08948,-1.48388 -38.06549,-2.20175 0.024,-0.71786 5.0544,-10.82762 11.17867,-22.46612 6.12428,-11.6385 11.13505,-22.54192 11.13505,-24.22979 0,-4.31499 -6.04819,-10.50265 -10.26594,-10.50265 -4.89649,0 -120.426341,80.69544 -118.949941,83.08432 0.45944,0.74338 16.94827,12.7646 36.641841,26.71379 19.69357,13.94922 45.60668,32.41193 57.58469,41.02827 11.978,8.61635 23.0781,15.70465 24.66688,15.75176 3.6349,0.10783 10.32247,-5.81915 10.32247,-9.14844 0,-1.37866 -5.022,-12.8983 -11.16001,-25.59918 -6.138,-12.7009 -11.1684,-24.32631 -11.17867,-25.83425 -0.0295,-4.33576 66.76821,-2.2483 79.87801,2.49623 29.65031,10.73067 62.83023,43.26868 72.66978,71.26385 3.5045,9.97109 3.9349,16.98908 3.9349,64.15773 l 0,52.96197 22.8655,-0.57469 22.8655,-0.57468 z"
       style="fill:#092d78;fill-opacity:1"
       sodipodi:nodetypes="sscssssssssssssssssssssssssscsscssssscsssssssssccsssssscsssscsssscsssssscsssssscccs" />
  </g>
</svg>
